<mxfile host="app.diagrams.net" agent="Mozilla/5.0 (X11; Linux x86_64) AppleWebKit/537.36 (KHTML, like Gecko) Chrome/131.0.0.0 Safari/537.36" version="25.0.3">
  <diagram name="Page-1" id="TyV5FoTbAPp-Sn_yn6a-">
    <mxGraphModel dx="1195" dy="662" grid="0" gridSize="10" guides="1" tooltips="1" connect="1" arrows="1" fold="1" page="0" pageScale="1" pageWidth="1100" pageHeight="850" background="none" math="0" shadow="0">
      <root>
        <mxCell id="0" />
        <mxCell id="1" parent="0" />
        <mxCell id="xm_HtEPjl_xPJ77A5Zim-1" value="Draw Game" style="swimlane;whiteSpace=wrap;html=1;labelBackgroundColor=none;" parent="1" vertex="1">
          <mxGeometry y="145" width="1100" height="605" as="geometry" />
        </mxCell>
        <mxCell id="xm_HtEPjl_xPJ77A5Zim-17" style="edgeStyle=orthogonalEdgeStyle;rounded=0;orthogonalLoop=1;jettySize=auto;html=1;entryX=0.5;entryY=0;entryDx=0;entryDy=0;labelBackgroundColor=none;fontColor=default;" parent="xm_HtEPjl_xPJ77A5Zim-1" target="xm_HtEPjl_xPJ77A5Zim-5" edge="1">
          <mxGeometry relative="1" as="geometry">
            <mxPoint x="450" y="160" as="sourcePoint" />
            <mxPoint x="250" y="190" as="targetPoint" />
            <Array as="points">
              <mxPoint x="110" y="160" />
            </Array>
          </mxGeometry>
        </mxCell>
        <mxCell id="xm_HtEPjl_xPJ77A5Zim-18" style="edgeStyle=orthogonalEdgeStyle;rounded=0;orthogonalLoop=1;jettySize=auto;html=1;entryX=0.5;entryY=0;entryDx=0;entryDy=0;labelBackgroundColor=none;fontColor=default;" parent="xm_HtEPjl_xPJ77A5Zim-1" source="xm_HtEPjl_xPJ77A5Zim-3" target="xm_HtEPjl_xPJ77A5Zim-6" edge="1">
          <mxGeometry relative="1" as="geometry">
            <Array as="points">
              <mxPoint x="545" y="160" />
              <mxPoint x="400" y="160" />
            </Array>
          </mxGeometry>
        </mxCell>
        <mxCell id="xm_HtEPjl_xPJ77A5Zim-19" style="edgeStyle=orthogonalEdgeStyle;rounded=0;orthogonalLoop=1;jettySize=auto;html=1;entryX=0.5;entryY=0;entryDx=0;entryDy=0;labelBackgroundColor=none;fontColor=default;" parent="xm_HtEPjl_xPJ77A5Zim-1" source="xm_HtEPjl_xPJ77A5Zim-3" target="xm_HtEPjl_xPJ77A5Zim-7" edge="1">
          <mxGeometry relative="1" as="geometry">
            <Array as="points">
              <mxPoint x="545" y="160" />
              <mxPoint x="690" y="160" />
            </Array>
          </mxGeometry>
        </mxCell>
        <mxCell id="xm_HtEPjl_xPJ77A5Zim-20" style="edgeStyle=orthogonalEdgeStyle;rounded=0;orthogonalLoop=1;jettySize=auto;html=1;entryX=0.5;entryY=0;entryDx=0;entryDy=0;labelBackgroundColor=none;fontColor=default;" parent="xm_HtEPjl_xPJ77A5Zim-1" target="xm_HtEPjl_xPJ77A5Zim-8" edge="1">
          <mxGeometry relative="1" as="geometry">
            <mxPoint x="650" y="160" as="sourcePoint" />
          </mxGeometry>
        </mxCell>
        <mxCell id="xm_HtEPjl_xPJ77A5Zim-3" value="" style="rounded=1;whiteSpace=wrap;html=1;labelBackgroundColor=none;" parent="xm_HtEPjl_xPJ77A5Zim-1" vertex="1">
          <mxGeometry x="480" y="65" width="130" height="60" as="geometry" />
        </mxCell>
        <mxCell id="xm_HtEPjl_xPJ77A5Zim-4" value="Game" style="text;html=1;align=center;verticalAlign=middle;whiteSpace=wrap;rounded=0;labelBackgroundColor=none;" parent="xm_HtEPjl_xPJ77A5Zim-1" vertex="1">
          <mxGeometry x="515" y="80" width="60" height="30" as="geometry" />
        </mxCell>
        <mxCell id="xm_HtEPjl_xPJ77A5Zim-58" style="edgeStyle=orthogonalEdgeStyle;rounded=0;orthogonalLoop=1;jettySize=auto;html=1;entryX=0.5;entryY=0;entryDx=0;entryDy=0;labelBackgroundColor=none;fontColor=default;" parent="xm_HtEPjl_xPJ77A5Zim-1" source="xm_HtEPjl_xPJ77A5Zim-5" target="xm_HtEPjl_xPJ77A5Zim-33" edge="1">
          <mxGeometry relative="1" as="geometry" />
        </mxCell>
        <mxCell id="xm_HtEPjl_xPJ77A5Zim-59" style="edgeStyle=orthogonalEdgeStyle;rounded=0;orthogonalLoop=1;jettySize=auto;html=1;entryX=0.5;entryY=0;entryDx=0;entryDy=0;labelBackgroundColor=none;fontColor=default;" parent="xm_HtEPjl_xPJ77A5Zim-1" source="xm_HtEPjl_xPJ77A5Zim-5" target="xm_HtEPjl_xPJ77A5Zim-35" edge="1">
          <mxGeometry relative="1" as="geometry" />
        </mxCell>
        <mxCell id="xm_HtEPjl_xPJ77A5Zim-5" value="" style="rounded=1;whiteSpace=wrap;html=1;labelBackgroundColor=none;" parent="xm_HtEPjl_xPJ77A5Zim-1" vertex="1">
          <mxGeometry x="50" y="190" width="120" height="60" as="geometry" />
        </mxCell>
        <mxCell id="xm_HtEPjl_xPJ77A5Zim-57" style="edgeStyle=orthogonalEdgeStyle;rounded=0;orthogonalLoop=1;jettySize=auto;html=1;entryX=0.5;entryY=0;entryDx=0;entryDy=0;labelBackgroundColor=none;fontColor=default;" parent="xm_HtEPjl_xPJ77A5Zim-1" source="xm_HtEPjl_xPJ77A5Zim-6" target="xm_HtEPjl_xPJ77A5Zim-37" edge="1">
          <mxGeometry relative="1" as="geometry" />
        </mxCell>
        <mxCell id="41qYEYsZossKchgrFOAN-6" style="edgeStyle=orthogonalEdgeStyle;rounded=0;orthogonalLoop=1;jettySize=auto;html=1;entryX=0.5;entryY=0;entryDx=0;entryDy=0;labelBackgroundColor=none;fontColor=default;" edge="1" parent="xm_HtEPjl_xPJ77A5Zim-1" source="xm_HtEPjl_xPJ77A5Zim-6" target="41qYEYsZossKchgrFOAN-2">
          <mxGeometry relative="1" as="geometry" />
        </mxCell>
        <mxCell id="xm_HtEPjl_xPJ77A5Zim-6" value="" style="rounded=1;whiteSpace=wrap;html=1;labelBackgroundColor=none;" parent="xm_HtEPjl_xPJ77A5Zim-1" vertex="1">
          <mxGeometry x="340" y="190" width="120" height="60" as="geometry" />
        </mxCell>
        <mxCell id="xm_HtEPjl_xPJ77A5Zim-54" style="edgeStyle=orthogonalEdgeStyle;rounded=0;orthogonalLoop=1;jettySize=auto;html=1;entryX=0.5;entryY=0;entryDx=0;entryDy=0;labelBackgroundColor=none;fontColor=default;" parent="xm_HtEPjl_xPJ77A5Zim-1" source="xm_HtEPjl_xPJ77A5Zim-7" target="xm_HtEPjl_xPJ77A5Zim-39" edge="1">
          <mxGeometry relative="1" as="geometry" />
        </mxCell>
        <mxCell id="xm_HtEPjl_xPJ77A5Zim-7" value="" style="rounded=1;whiteSpace=wrap;html=1;labelBackgroundColor=none;" parent="xm_HtEPjl_xPJ77A5Zim-1" vertex="1">
          <mxGeometry x="630" y="190" width="120" height="60" as="geometry" />
        </mxCell>
        <mxCell id="xm_HtEPjl_xPJ77A5Zim-56" style="edgeStyle=orthogonalEdgeStyle;rounded=0;orthogonalLoop=1;jettySize=auto;html=1;entryX=0.5;entryY=0;entryDx=0;entryDy=0;labelBackgroundColor=none;fontColor=default;" parent="xm_HtEPjl_xPJ77A5Zim-1" source="xm_HtEPjl_xPJ77A5Zim-8" target="xm_HtEPjl_xPJ77A5Zim-41" edge="1">
          <mxGeometry relative="1" as="geometry" />
        </mxCell>
        <mxCell id="xm_HtEPjl_xPJ77A5Zim-8" value="" style="rounded=1;whiteSpace=wrap;html=1;labelBackgroundColor=none;" parent="xm_HtEPjl_xPJ77A5Zim-1" vertex="1">
          <mxGeometry x="920" y="190" width="120" height="60" as="geometry" />
        </mxCell>
        <mxCell id="xm_HtEPjl_xPJ77A5Zim-22" value="&lt;font style=&quot;font-size: 11px;&quot;&gt;1. Authoritative Server&lt;/font&gt;" style="text;html=1;align=center;verticalAlign=middle;whiteSpace=wrap;rounded=0;labelBackgroundColor=none;" parent="xm_HtEPjl_xPJ77A5Zim-1" vertex="1">
          <mxGeometry x="80" y="205" width="60" height="30" as="geometry" />
        </mxCell>
        <mxCell id="xm_HtEPjl_xPJ77A5Zim-23" value="&lt;font style=&quot;font-size: 11px;&quot;&gt;2. &lt;br&gt;Client&lt;/font&gt;" style="text;html=1;align=center;verticalAlign=middle;whiteSpace=wrap;rounded=0;labelBackgroundColor=none;" parent="xm_HtEPjl_xPJ77A5Zim-1" vertex="1">
          <mxGeometry x="370" y="205" width="60" height="30" as="geometry" />
        </mxCell>
        <mxCell id="xm_HtEPjl_xPJ77A5Zim-24" value="&lt;font style=&quot;font-size: 11px;&quot;&gt;3.&lt;br&gt;Game Engine&lt;/font&gt;" style="text;html=1;align=center;verticalAlign=middle;whiteSpace=wrap;rounded=0;labelBackgroundColor=none;" parent="xm_HtEPjl_xPJ77A5Zim-1" vertex="1">
          <mxGeometry x="660" y="205" width="60" height="30" as="geometry" />
        </mxCell>
        <mxCell id="xm_HtEPjl_xPJ77A5Zim-25" value="&lt;font style=&quot;font-size: 11px;&quot;&gt;4. Rendering Engine&lt;/font&gt;" style="text;html=1;align=center;verticalAlign=middle;whiteSpace=wrap;rounded=0;labelBackgroundColor=none;" parent="xm_HtEPjl_xPJ77A5Zim-1" vertex="1">
          <mxGeometry x="950" y="205" width="60" height="30" as="geometry" />
        </mxCell>
        <mxCell id="xm_HtEPjl_xPJ77A5Zim-60" style="edgeStyle=orthogonalEdgeStyle;rounded=0;orthogonalLoop=1;jettySize=auto;html=1;entryX=0.5;entryY=0;entryDx=0;entryDy=0;labelBackgroundColor=none;fontColor=default;" parent="xm_HtEPjl_xPJ77A5Zim-1" source="xm_HtEPjl_xPJ77A5Zim-33" target="xm_HtEPjl_xPJ77A5Zim-43" edge="1">
          <mxGeometry relative="1" as="geometry" />
        </mxCell>
        <mxCell id="xm_HtEPjl_xPJ77A5Zim-33" value="" style="rounded=1;whiteSpace=wrap;html=1;labelBackgroundColor=none;" parent="xm_HtEPjl_xPJ77A5Zim-1" vertex="1">
          <mxGeometry x="10" y="302.5" width="90" height="45" as="geometry" />
        </mxCell>
        <mxCell id="xm_HtEPjl_xPJ77A5Zim-34" value="&lt;font style=&quot;font-size: 11px;&quot;&gt;Calculate Turn&lt;/font&gt;" style="text;html=1;align=center;verticalAlign=middle;whiteSpace=wrap;rounded=0;labelBackgroundColor=none;" parent="xm_HtEPjl_xPJ77A5Zim-1" vertex="1">
          <mxGeometry x="25" y="310" width="60" height="30" as="geometry" />
        </mxCell>
        <mxCell id="xm_HtEPjl_xPJ77A5Zim-61" style="edgeStyle=orthogonalEdgeStyle;rounded=0;orthogonalLoop=1;jettySize=auto;html=1;entryX=0.5;entryY=0;entryDx=0;entryDy=0;labelBackgroundColor=none;fontColor=default;" parent="xm_HtEPjl_xPJ77A5Zim-1" source="xm_HtEPjl_xPJ77A5Zim-35" target="xm_HtEPjl_xPJ77A5Zim-44" edge="1">
          <mxGeometry relative="1" as="geometry" />
        </mxCell>
        <mxCell id="xm_HtEPjl_xPJ77A5Zim-35" value="" style="rounded=1;whiteSpace=wrap;html=1;labelBackgroundColor=none;" parent="xm_HtEPjl_xPJ77A5Zim-1" vertex="1">
          <mxGeometry x="120" y="302.5" width="90" height="45" as="geometry" />
        </mxCell>
        <mxCell id="xm_HtEPjl_xPJ77A5Zim-36" value="&lt;font style=&quot;font-size: 11px;&quot;&gt;Determine Card State&lt;/font&gt;" style="text;html=1;align=center;verticalAlign=middle;whiteSpace=wrap;rounded=0;labelBackgroundColor=none;" parent="xm_HtEPjl_xPJ77A5Zim-1" vertex="1">
          <mxGeometry x="135" y="310" width="60" height="30" as="geometry" />
        </mxCell>
        <mxCell id="xm_HtEPjl_xPJ77A5Zim-62" style="edgeStyle=orthogonalEdgeStyle;rounded=0;orthogonalLoop=1;jettySize=auto;html=1;entryX=0.5;entryY=0;entryDx=0;entryDy=0;labelBackgroundColor=none;fontColor=default;" parent="xm_HtEPjl_xPJ77A5Zim-1" source="xm_HtEPjl_xPJ77A5Zim-37" target="xm_HtEPjl_xPJ77A5Zim-45" edge="1">
          <mxGeometry relative="1" as="geometry" />
        </mxCell>
        <mxCell id="xm_HtEPjl_xPJ77A5Zim-37" value="" style="rounded=1;whiteSpace=wrap;html=1;labelBackgroundColor=none;" parent="xm_HtEPjl_xPJ77A5Zim-1" vertex="1">
          <mxGeometry x="300" y="302.5" width="90" height="45" as="geometry" />
        </mxCell>
        <mxCell id="xm_HtEPjl_xPJ77A5Zim-38" value="&lt;font style=&quot;font-size: 11px;&quot;&gt;Sends Move&lt;/font&gt;" style="text;html=1;align=center;verticalAlign=middle;whiteSpace=wrap;rounded=0;labelBackgroundColor=none;" parent="xm_HtEPjl_xPJ77A5Zim-1" vertex="1">
          <mxGeometry x="315" y="310" width="60" height="30" as="geometry" />
        </mxCell>
        <mxCell id="xm_HtEPjl_xPJ77A5Zim-63" style="edgeStyle=orthogonalEdgeStyle;rounded=0;orthogonalLoop=1;jettySize=auto;html=1;entryX=0.5;entryY=0;entryDx=0;entryDy=0;labelBackgroundColor=none;fontColor=default;" parent="xm_HtEPjl_xPJ77A5Zim-1" source="xm_HtEPjl_xPJ77A5Zim-39" target="xm_HtEPjl_xPJ77A5Zim-46" edge="1">
          <mxGeometry relative="1" as="geometry" />
        </mxCell>
        <mxCell id="xm_HtEPjl_xPJ77A5Zim-39" value="" style="rounded=1;whiteSpace=wrap;html=1;labelBackgroundColor=none;" parent="xm_HtEPjl_xPJ77A5Zim-1" vertex="1">
          <mxGeometry x="645" y="302.5" width="90" height="45" as="geometry" />
        </mxCell>
        <mxCell id="xm_HtEPjl_xPJ77A5Zim-40" value="&lt;font style=&quot;font-size: 11px;&quot;&gt;Calculate Legal Moves&lt;/font&gt;" style="text;html=1;align=center;verticalAlign=middle;whiteSpace=wrap;rounded=0;labelBackgroundColor=none;" parent="xm_HtEPjl_xPJ77A5Zim-1" vertex="1">
          <mxGeometry x="660" y="310" width="60" height="30" as="geometry" />
        </mxCell>
        <mxCell id="xm_HtEPjl_xPJ77A5Zim-64" style="edgeStyle=orthogonalEdgeStyle;rounded=0;orthogonalLoop=1;jettySize=auto;html=1;entryX=0.5;entryY=0;entryDx=0;entryDy=0;labelBackgroundColor=none;fontColor=default;" parent="xm_HtEPjl_xPJ77A5Zim-1" source="xm_HtEPjl_xPJ77A5Zim-41" target="xm_HtEPjl_xPJ77A5Zim-47" edge="1">
          <mxGeometry relative="1" as="geometry" />
        </mxCell>
        <mxCell id="xm_HtEPjl_xPJ77A5Zim-41" value="" style="rounded=1;whiteSpace=wrap;html=1;labelBackgroundColor=none;" parent="xm_HtEPjl_xPJ77A5Zim-1" vertex="1">
          <mxGeometry x="935" y="302.5" width="90" height="45" as="geometry" />
        </mxCell>
        <mxCell id="xm_HtEPjl_xPJ77A5Zim-42" value="&lt;font style=&quot;font-size: 11px;&quot;&gt;Show Game State&lt;/font&gt;" style="text;html=1;align=center;verticalAlign=middle;whiteSpace=wrap;rounded=0;labelBackgroundColor=none;" parent="xm_HtEPjl_xPJ77A5Zim-1" vertex="1">
          <mxGeometry x="950" y="310" width="60" height="30" as="geometry" />
        </mxCell>
        <mxCell id="xm_HtEPjl_xPJ77A5Zim-43" value="&lt;font style=&quot;font-size: 11px;&quot;&gt;Turn&lt;/font&gt;&lt;div&gt;&lt;font style=&quot;font-size: 11px;&quot;&gt;Primitives&lt;/font&gt;&lt;/div&gt;" style="swimlane;whiteSpace=wrap;html=1;startSize=30;labelBackgroundColor=none;" parent="xm_HtEPjl_xPJ77A5Zim-1" vertex="1">
          <mxGeometry x="10" y="375" width="90" height="185" as="geometry" />
        </mxCell>
        <mxCell id="xm_HtEPjl_xPJ77A5Zim-49" value="&lt;span style=&quot;background-color: initial;&quot;&gt;1. Track Player Turn&lt;/span&gt;&lt;div&gt;&lt;br&gt;&lt;/div&gt;" style="text;strokeColor=none;fillColor=none;align=left;verticalAlign=middle;spacingLeft=4;spacingRight=4;overflow=hidden;points=[[0,0.5],[1,0.5]];portConstraint=eastwest;rotatable=0;whiteSpace=wrap;html=1;labelBackgroundColor=none;" parent="xm_HtEPjl_xPJ77A5Zim-43" vertex="1">
          <mxGeometry x="7.5" y="30" width="80" height="150" as="geometry" />
        </mxCell>
        <mxCell id="xm_HtEPjl_xPJ77A5Zim-44" value="&lt;font style=&quot;font-size: 11px;&quot;&gt;Card State Primitives&lt;/font&gt;" style="swimlane;whiteSpace=wrap;html=1;startSize=30;labelBackgroundColor=none;" parent="xm_HtEPjl_xPJ77A5Zim-1" vertex="1">
          <mxGeometry x="120" y="375" width="90" height="185" as="geometry" />
        </mxCell>
        <mxCell id="xm_HtEPjl_xPJ77A5Zim-50" value="&lt;div&gt;1. Track Deck State&lt;/div&gt;&lt;div&gt;&lt;br&gt;&lt;/div&gt;&lt;div&gt;2. Track Discard Pile State&lt;/div&gt;&lt;div&gt;&lt;br&gt;&lt;/div&gt;&lt;div&gt;3. Track All Players Hands&lt;/div&gt;" style="text;strokeColor=none;fillColor=none;align=left;verticalAlign=middle;spacingLeft=4;spacingRight=4;overflow=hidden;points=[[0,0.5],[1,0.5]];portConstraint=eastwest;rotatable=0;whiteSpace=wrap;html=1;labelBackgroundColor=none;" parent="xm_HtEPjl_xPJ77A5Zim-44" vertex="1">
          <mxGeometry x="5" y="30" width="80" height="150" as="geometry" />
        </mxCell>
        <mxCell id="xm_HtEPjl_xPJ77A5Zim-45" value="&lt;font style=&quot;font-size: 11px;&quot;&gt;Move&lt;/font&gt;&lt;div&gt;&lt;font style=&quot;font-size: 11px;&quot;&gt;Primitives&lt;/font&gt;&lt;/div&gt;" style="swimlane;whiteSpace=wrap;html=1;startSize=30;labelBackgroundColor=none;" parent="xm_HtEPjl_xPJ77A5Zim-1" vertex="1">
          <mxGeometry x="300" y="375" width="90" height="185" as="geometry">
            <mxRectangle x="355" y="375" width="85" height="30" as="alternateBounds" />
          </mxGeometry>
        </mxCell>
        <mxCell id="xm_HtEPjl_xPJ77A5Zim-51" value="&lt;div&gt;1. Send Move&lt;/div&gt;" style="text;strokeColor=none;fillColor=none;align=left;verticalAlign=middle;spacingLeft=4;spacingRight=4;overflow=hidden;points=[[0,0.5],[1,0.5]];portConstraint=eastwest;rotatable=0;whiteSpace=wrap;html=1;labelBackgroundColor=none;" parent="xm_HtEPjl_xPJ77A5Zim-45" vertex="1">
          <mxGeometry x="5" y="30" width="80" height="150" as="geometry" />
        </mxCell>
        <mxCell id="xm_HtEPjl_xPJ77A5Zim-46" value="&lt;font style=&quot;font-size: 11px;&quot;&gt;Engine Primitives&lt;/font&gt;" style="swimlane;whiteSpace=wrap;html=1;startSize=30;labelBackgroundColor=none;" parent="xm_HtEPjl_xPJ77A5Zim-1" vertex="1">
          <mxGeometry x="645" y="375" width="90" height="185" as="geometry" />
        </mxCell>
        <mxCell id="xm_HtEPjl_xPJ77A5Zim-52" value="&lt;div&gt;1. Determine Which Cards are Playable&lt;/div&gt;" style="text;strokeColor=none;fillColor=none;align=left;verticalAlign=middle;spacingLeft=4;spacingRight=4;overflow=hidden;points=[[0,0.5],[1,0.5]];portConstraint=eastwest;rotatable=0;whiteSpace=wrap;html=1;labelBackgroundColor=none;" parent="xm_HtEPjl_xPJ77A5Zim-46" vertex="1">
          <mxGeometry x="5" y="30" width="80" height="150" as="geometry" />
        </mxCell>
        <mxCell id="xm_HtEPjl_xPJ77A5Zim-47" value="&lt;font style=&quot;font-size: 10px;&quot;&gt;Rendering Primitives&lt;/font&gt;" style="swimlane;whiteSpace=wrap;html=1;startSize=30;labelBackgroundColor=none;" parent="xm_HtEPjl_xPJ77A5Zim-1" vertex="1">
          <mxGeometry x="935" y="375" width="90" height="185" as="geometry" />
        </mxCell>
        <mxCell id="xm_HtEPjl_xPJ77A5Zim-53" value="&lt;div&gt;1. Display Legal Moves&lt;/div&gt;&lt;div&gt;&lt;br&gt;&lt;/div&gt;&lt;div&gt;2. Display Deck and Discard&lt;/div&gt;&lt;div&gt;&lt;br&gt;&lt;/div&gt;&lt;div&gt;3. Display All Player Cards&lt;/div&gt;" style="text;strokeColor=none;fillColor=none;align=left;verticalAlign=middle;spacingLeft=4;spacingRight=4;overflow=hidden;points=[[0,0.5],[1,0.5]];portConstraint=eastwest;rotatable=0;whiteSpace=wrap;html=1;labelBackgroundColor=none;" parent="xm_HtEPjl_xPJ77A5Zim-47" vertex="1">
          <mxGeometry x="5" y="30" width="80" height="150" as="geometry" />
        </mxCell>
        <mxCell id="41qYEYsZossKchgrFOAN-1" style="edgeStyle=orthogonalEdgeStyle;rounded=0;orthogonalLoop=1;jettySize=auto;html=1;entryX=0.5;entryY=0;entryDx=0;entryDy=0;labelBackgroundColor=none;fontColor=default;" edge="1" parent="xm_HtEPjl_xPJ77A5Zim-1" source="41qYEYsZossKchgrFOAN-2" target="41qYEYsZossKchgrFOAN-4">
          <mxGeometry relative="1" as="geometry" />
        </mxCell>
        <mxCell id="41qYEYsZossKchgrFOAN-2" value="" style="rounded=1;whiteSpace=wrap;html=1;labelBackgroundColor=none;" vertex="1" parent="xm_HtEPjl_xPJ77A5Zim-1">
          <mxGeometry x="410" y="302.5" width="90" height="45" as="geometry" />
        </mxCell>
        <mxCell id="41qYEYsZossKchgrFOAN-3" value="&lt;font style=&quot;font-size: 11px;&quot;&gt;Receive State&lt;/font&gt;" style="text;html=1;align=center;verticalAlign=middle;whiteSpace=wrap;rounded=0;labelBackgroundColor=none;" vertex="1" parent="xm_HtEPjl_xPJ77A5Zim-1">
          <mxGeometry x="425" y="310" width="60" height="30" as="geometry" />
        </mxCell>
        <mxCell id="41qYEYsZossKchgrFOAN-4" value="&lt;font style=&quot;font-size: 11px;&quot;&gt;Receive&lt;/font&gt;&lt;div&gt;&lt;font style=&quot;font-size: 11px;&quot;&gt;Primitives&lt;/font&gt;&lt;/div&gt;" style="swimlane;whiteSpace=wrap;html=1;startSize=30;labelBackgroundColor=none;" vertex="1" parent="xm_HtEPjl_xPJ77A5Zim-1">
          <mxGeometry x="410" y="375" width="90" height="185" as="geometry">
            <mxRectangle x="355" y="375" width="85" height="30" as="alternateBounds" />
          </mxGeometry>
        </mxCell>
        <mxCell id="41qYEYsZossKchgrFOAN-5" value="&lt;div&gt;&lt;span style=&quot;background-color: initial;&quot;&gt;1. Receive Game State&lt;/span&gt;&lt;/div&gt;&lt;div&gt;&lt;br&gt;&lt;/div&gt;&lt;div&gt;2. Receive Turn Permission&lt;/div&gt;" style="text;strokeColor=none;fillColor=none;align=left;verticalAlign=middle;spacingLeft=4;spacingRight=4;overflow=hidden;points=[[0,0.5],[1,0.5]];portConstraint=eastwest;rotatable=0;whiteSpace=wrap;html=1;labelBackgroundColor=none;" vertex="1" parent="41qYEYsZossKchgrFOAN-4">
          <mxGeometry x="5" y="30" width="80" height="150" as="geometry" />
        </mxCell>
      </root>
    </mxGraphModel>
  </diagram>
</mxfile>
